<svg xmlns="http://www.w3.org/2000/svg" xmlns:xlink="http://www.w3.org/1999/xlink" width="255" height="88" viewBox="0 0 255 88">
    <defs>
        <path id="vd3geo8uea" d="M0 87.032L254.879 87.032 254.879 0 0 0z"/>
    </defs>
    <g fill="none" fill-rule="evenodd">
        <g>
            <g>
                <path fill="#231F20" d="M202.463 55.039L203.999 55.039 203.999 31.993 202.463 31.993z" transform="translate(-50.000000, -30.000000) translate(50.000000, 30.000000)"/>
                <g transform="translate(-50.000000, -30.000000) translate(50.000000, 30.000000)">
                    <path fill="#231F20" d="M132.75 43.7c0 2.557-.981 5.115-2.942 7.067-3.922 3.903-10.28 3.903-14.201 0-3.922-3.903-3.922-10.231 0-14.134 3.921-3.903 10.28-3.903 14.201 0l1.086-1.081c-4.521-4.5-11.852-4.5-16.374 0-4.52 4.5-4.52 11.796 0 16.296 4.522 4.5 11.853 4.5 16.374 0 2.26-2.25 3.391-5.2 3.391-8.148h-1.536z"/>
                    <mask id="wscreeav5b" fill="#fff">
                        <use xlink:href="#vd3geo8uea"/>
                    </mask>
                    <path fill="#231F20" d="M128.89 45.228L133.501 45.228 133.501 43.7 128.89 43.7zM144.162 45.228L148.789 45.228 148.789 43.7 144.162 43.7zM233.627 55.039L235.163 55.039 235.163 46.442 233.627 46.442zM203.387 33.522L209.413 33.522 209.413 31.993 203.387 31.993zM186.086 53.51L186.086 31.993 184.55 31.993 184.55 53.51 184.55 55.039 186.086 55.039 190.536 55.039 190.536 53.51zM168.172 53.51L168.172 31.993 166.637 31.993 166.637 53.51 166.637 55.039 168.172 55.039 172.622 55.039 172.622 53.51zM205.476 48.223L208.489 48.223 208.489 46.695 205.476 46.695z" mask="url(#wscreeav5b)"/>
                    <path fill="#231F20" d="M208.489 31.993v1.529c3.765 0 6.818 2.949 6.818 6.586 0 3.638-3.053 6.587-6.818 6.587v1.528c4.503 0 8.154-3.633 8.154-8.115s-3.65-8.115-8.154-8.115" mask="url(#wscreeav5b)"/>
                    <path fill="#231F20" d="M218.93 55.039L210.593 46.741 209.507 47.822 216.758 55.039z" mask="url(#wscreeav5b)"/>
                    <path fill="#959595" d="M136.853 84.473L138.388 84.473 138.388 61.428 136.853 61.428z" mask="url(#wscreeav5b)"/>
                    <path fill="#959595" d="M136.853 62.956L142.878 62.956 142.878 61.428 136.853 61.428zM139.865 77.658L142.878 77.658 142.878 76.129 139.865 76.129zM142.878 61.428v1.528c3.766 0 6.818 2.95 6.818 6.587 0 3.637-3.052 6.586-6.818 6.586v1.529c4.503 0 8.154-3.633 8.154-8.115s-3.65-8.115-8.154-8.115" mask="url(#wscreeav5b)"/>
                    <path fill="#959595" d="M153.319 84.473L144.982 76.176 143.896 77.256 151.147 84.473z" mask="url(#wscreeav5b)"/>
                    <path fill="#231F20" d="M242.04 31.993L234.395 45.172 226.75 31.993 224.976 31.993 233.508 46.701 234.388 48.217 234.392 48.223 234.395 48.222 234.399 48.223 234.402 48.217 235.282 46.701 243.814 31.993zM154.132 42.778L155.906 42.778 150.868 34.094 149.988 32.577 149.984 32.571 149.981 32.573 149.977 32.571 149.974 32.577 149.094 34.094 136.944 55.039 138.717 55.039 149.981 35.622z" mask="url(#wscreeav5b)"/>
                    <path fill="#959595" d="M120.837 61.428h-6.025V84.473h1.535V62.956h4.49c3.766 0 6.818 2.95 6.818 6.587 0 3.637-3.052 6.586-6.818 6.586v1.529c4.503 0 8.154-3.633 8.154-8.115s-3.65-8.115-8.154-8.115M124.584 1.446L119.813 1.446 118.278 1.446 113.507 1.446 113.507 2.975 118.278 2.975 118.278 24.679 119.813 24.679 119.813 2.975 124.584 2.975zM254.879 61.716L250.108 61.716 248.572 61.716 243.801 61.716 243.801 63.245 248.572 63.245 248.572 84.949 250.108 84.949 250.108 63.245 254.879 63.245zM236.528 80.541c-3.932 3.76-10.18 3.714-14.053-.14-3.922-3.904-3.922-10.232 0-14.135 3.922-3.903 10.28-3.903 14.201 0l1.086-1.08c-4.52-4.5-11.852-4.5-16.373 0-4.522 4.5-4.522 11.795 0 16.295 4.473 4.452 11.693 4.497 16.225.141l-1.086-1.08zM167.945 3.068L167.945 1.54 163.495 1.54 161.959 1.54 161.959 3.068 161.959 23.057 161.959 24.585 163.495 24.585 167.945 24.585 167.945 23.057 163.495 23.057 163.495 14.591 167.945 14.591 167.945 13.062 163.495 13.062 163.495 3.068zM209.896 62.956L209.896 61.428 205.446 61.428 203.91 61.428 203.91 62.956 203.91 82.945 203.91 84.473 205.446 84.473 209.896 84.473 209.896 82.945 205.446 82.945 205.446 74.479 209.896 74.479 209.896 72.951 205.446 72.951 205.446 62.956zM191.588 79.513L193.124 79.513 193.124 61.074 191.588 61.074zM191.575 79.513c0 2.092-1.704 3.789-3.806 3.789v1.525c2.949 0 5.34-2.38 5.34-5.314h-1.534zM136.127 14.972L145.898 14.972 145.898 13.339 136.127 13.339zM134.591 24.679L136.127 24.679 136.127 1.446 134.591 1.446zM149.278 24.679L150.813 24.679 150.813 1.446 149.278 1.446zM163.545 65.377c1.753-1.498 4.031-2.405 6.523-2.405 5.537 0 10.026 4.468 10.026 9.979 0 5.51-4.489 9.978-10.026 9.978s-10.025-4.468-10.025-9.978c0-2.48.91-4.748 2.416-6.493l-1.102-1.097c-1.785 2.028-2.867 4.683-2.867 7.59 0 6.363 5.184 11.522 11.578 11.522 6.395 0 11.578-5.159 11.578-11.522 0-6.364-5.183-11.523-11.578-11.523-2.92 0-5.588 1.076-7.625 2.852l1.102 1.097z" mask="url(#wscreeav5b)"/>
                    <path fill="#231F20" d="M87.448 43.516c0 24.033-19.576 43.516-43.724 43.516C19.576 87.032 0 67.55 0 43.516 0 19.483 19.576 0 43.724 0c24.148 0 43.724 19.483 43.724 43.516" mask="url(#wscreeav5b)"/>
                    <path fill="#FEFEFE" d="M70.61 44.07c0 6.78-2.6 13.561-7.798 18.735-10.396 10.347-27.252 10.347-37.648 0-10.397-10.347-10.397-27.123 0-37.47 10.396-10.347 27.252-10.347 37.648 0l2.88-2.865h-.001c-11.986-11.93-31.42-11.93-43.407 0-11.986 11.93-11.986 31.27 0 43.2 11.987 11.93 31.42 11.93 43.407 0 5.993-5.965 8.99-13.782 8.99-21.6h-4.072z" mask="url(#wscreeav5b)"/>
                    <path fill="#FEFEFE" d="M60.379 48.122L72.602 48.122 72.602 44.07 60.379 44.07z" mask="url(#wscreeav5b)"/>
                </g>
            </g>
        </g>
    </g>
</svg>
